<?xml version="1.0" encoding="utf-8"?>
<!-- Generator: Adobe Illustrator 25.4.0, SVG Export Plug-In . SVG Version: 6.00 Build 0)  -->
<svg version="1.1" id="Layer_1" xmlns="http://www.w3.org/2000/svg" xmlns:xlink="http://www.w3.org/1999/xlink" x="0px" y="0px"
	 viewBox="0 0 612 792" style="enable-background:new 0 0 612 792;" xml:space="preserve">
<style type="text/css">
	.st0{fill:#FFFFFF;}
	.st1{fill:#231F20;}
	.st2{fill:#4F5050;}
</style>
<ellipse class="st1" cx="295" cy="441.8" rx="42" ry="41.8"/>
<path class="st0" d="M330.6,342L330.6,342c-9.1,0-16.1-7.5-16.1-16.8l0-0.1c0-9.4,8-16.9,17.1-16.9h0c9.1,0,15.5,7.6,15.5,16.9v0
	C347,334.4,339.7,342,330.6,342z"/>
<g>
	<g>
		<path class="st0" d="M347,325c0-34.6-18.9-62.8-55.4-62.8c-31.1,0-61.2,28-61.2,62.6c0,34.6,27.4,62.6,61.2,62.6v-33.2
			c-15.5,0-28.7-13.5-28.7-29.4s14.2-29.2,29.7-29.4c13.9-0.1,14.6-5.2,45.3,13.1"/>
	</g>
</g>
<g>
	<g>
		<path class="st0" d="M295,352.1c-49.4,0-89.4,39-89.4,88.4c0,49.4,40,89.4,89.4,89.4c49.4,0,89.4-40,89.4-89.4
			C384.4,391.1,344.4,352.1,295,352.1z M295,483.3c-22.6,0-42-18.3-42-41s19.3-42,42-42s42,19.3,42,42S317.7,483.3,295,483.3z"/>
	</g>
</g>
<g>
	<g>
		<path class="st2" d="M295,351.1c-36.5,0-66.1,29.6-66.1,66.1c0,36.5,29.6,66.1,66.1,66.1c-22.6,0-41-18.3-41-41s18.3-41,41-41
			s41,18.3,41,41s-18.3,41-41,41c36.5,0,66.1-29.6,66.1-66.1C361.1,380.7,331.5,351.1,295,351.1z"/>
	</g>
</g>
<g>
	<g>
		<path class="st2" d="M295,353.4c-17.3,0-27.3-15.2-27.3-33.2c0-13.7,11.8-23.8,24.3-23.9c13.7-0.1,27.2,7.2,26.1,17.6
			c-0.3,2.6-3.7,2.4-4.5,11.5c-0.6,7.4,5,13.1,11.6,13.1c3.9,0,6.5-1.7,8.1-3.2c3-2.9,5.7-6.9,6.2-16.7c0.4-7.7-1.3-19-2.4-22.8
			c-5.6-20.2-22-34.6-44.2-33.6c-24.8,1.1-43.5,22-43.2,46.8c0.3,25.3,19.9,45,45.3,45"/>
	</g>
</g>
<path class="st2" d="M325.3,338.6L325.3,338.6c-6.6,0-11.6-5.3-11.6-12l0-0.1c0-6.6,5.8-12,12.3-12h0c6.6,0,11.2,5.4,11.2,12l0,0
	C337.2,333.2,331.8,338.6,325.3,338.6z"/>
</svg>
